<svg width="16" height="12" viewBox="0 0 16 12" fill="none" xmlns="http://www.w3.org/2000/svg">
<path d="M12.15 6.60483H1C0.716667 6.60483 0.479167 6.50839 0.2875 6.3155C0.0958333 6.12261 0 5.8836 0 5.59846C0 5.31332 0.0958333 5.0743 0.2875 4.88141C0.479167 4.68853 0.716667 4.59208 1 4.59208H12.15L9.3 1.72392C9.1 1.52264 9.00417 1.28782 9.0125 1.01946C9.02083 0.75109 9.11667 0.51627 9.3 0.314995C9.5 0.11372 9.7375 0.00888963 10.0125 0.000503187C10.2875 -0.00788326 10.525 0.0885609 10.725 0.289836L15.3 4.89399C15.4 4.99463 15.4708 5.10366 15.5125 5.22107C15.5542 5.33848 15.575 5.46427 15.575 5.59846C15.575 5.73264 15.5542 5.85844 15.5125 5.97585C15.4708 6.09326 15.4 6.20228 15.3 6.30292L10.725 10.9071C10.525 11.1084 10.2875 11.2048 10.0125 11.1964C9.7375 11.188 9.5 11.0832 9.3 10.8819C9.11667 10.6806 9.02083 10.4458 9.0125 10.1775C9.00417 9.90909 9.1 9.67427 9.3 9.47299L12.15 6.60483Z" fill="black"/>
</svg>
