<svg id="lw6xndeq78121811" viewBox="0 0 107 134.392" xmlns="http://www.w3.org/2000/svg" xmlns:xlink="http://www.w3.org/1999/xlink"><g id="lw6xndeq78121811_translate"><g transform="matrix(1,0,0,1,0,0)"><g id="lw6xndeq78121811" opacity="1" style="mix-blend-mode:normal"><g><g><g id="lw6xndev01260434_translate"><g transform="matrix(1,0,0,1,0,0)"><g id="lw6xndev01260434" opacity="1" style="mix-blend-mode:normal"><g><g><g id="lw6xndey54246287_translate"><g transform="matrix(1,0,0,1,25.0001,75)"><g id="lw6xndey54246287" opacity="1" style="mix-blend-mode:normal"><g><g><defs><clipPath id="lw6xndey54246287_stroke_clip_path" clipPathUnits="userSpaceOnUse"><path d="M8,0h44c4.41828,0 8,3.58172 8,8v31c0,4.41828 -3.58172,8 -8,8h-44c-4.41828,0 -8,-3.58172 -8,-8v-31c0,-4.41828 3.58172,-8 8,-8z"></path></clipPath></defs><g style="mix-blend-mode:normal"><g clip-path="url(#lw6xndey54246287_stroke_clip_path)"><path id="lw6xndey54246287_stroke_path" d="M8,0h44c4.41828,0 8,3.58172 8,8v31c0,4.41828 -3.58172,8 -8,8h-44c-4.41828,0 -8,-3.58172 -8,-8v-31c0,-4.41828 3.58172,-8 8,-8z" fill="none" stroke="rgb(255, 255, 255)" stroke-width="18" stroke-linecap="butt" stroke-linejoin="miter" stroke-dasharray="0 0" stroke-opacity="1"></path></g></g></g></g></g></g></g><g id="lw6xndf393223446_translate"><g transform="matrix(0.9795917454998205,-0.20090182072003096,0.20099756640670347,0.979611381330054,0.0001,29.6817)"><g id="lw6xndf393223446" opacity="1" style="mix-blend-mode:normal"><g><g><defs><clipPath id="lw6xndf393223446_stroke_clip_path" clipPathUnits="userSpaceOnUse"><path d="M14,0h60c7.73199,0 14,6.26801 14,14v31c0,7.73199 -6.26801,14 -14,14h-60c-7.73199,0 -14,-6.26801 -14,-14v-31c0,-7.73199 6.26801,-14 14,-14z"></path></clipPath></defs><g style="mix-blend-mode:normal"><g clip-path="url(#lw6xndf393223446_stroke_clip_path)"><path id="lw6xndf393223446_stroke_path" d="M14,0h60c7.73199,0 14,6.26801 14,14v31c0,7.73199 -6.26801,14 -14,14h-60c-7.73199,0 -14,-6.26801 -14,-14v-31c0,-7.73199 6.26801,-14 14,-14z" fill="none" stroke="rgb(255, 255, 255)" stroke-width="22" stroke-linecap="butt" stroke-linejoin="miter" stroke-dasharray="0 0" stroke-opacity="1"></path></g></g></g></g></g></g></g><g id="lw6xndf731689662_translate"><g transform="matrix(0.5448231182817094,0.8385450698636426,-0.8384317400436261,0.5448322363878433,39.9332,113)"><g id="lw6xndf731689662" opacity="1" style="mix-blend-mode:normal"><g><g><path id="lw6xndf731689662_fill_path" d="M5,0h4c2.76142,0 5,2.23858 5,5v9c0,2.76142 -2.23858,5 -5,5h-4c-2.76142,0 -5,-2.23858 -5,-5v-9c0,-2.76142 2.23858,-5 5,-5z" fill-rule="nonzero" fill="rgb(255, 255, 255)" fill-opacity="1" style="mix-blend-mode:normal"></path><path id="lw6xndf731689662_fill_path" d="M5,0h4c2.76142,0 5,2.23858 5,5v9c0,2.76142 -2.23858,5 -5,5h-4c-2.76142,0 -5,-2.23858 -5,-5v-9c0,-2.76142 2.23858,-5 5,-5z" fill-rule="nonzero" fill="rgb(255, 255, 255)" fill-opacity="1" style="mix-blend-mode:normal"></path><path id="lw6xndf731689662_fill_path" d="M5,0h4c2.76142,0 5,2.23858 5,5v9c0,2.76142 -2.23858,5 -5,5h-4c-2.76142,0 -5,-2.23858 -5,-5v-9c0,-2.76142 2.23858,-5 5,-5z" fill-rule="nonzero" fill="rgb(255, 255, 255)" fill-opacity="1" style="mix-blend-mode:normal"></path><path id="lw6xndf731689662_fill_path" d="M5,0h4c2.76142,0 5,2.23858 5,5v9c0,2.76142 -2.23858,5 -5,5h-4c-2.76142,0 -5,-2.23858 -5,-5v-9c0,-2.76142 2.23858,-5 5,-5z" fill-rule="nonzero" fill="rgb(255, 255, 255)" fill-opacity="1" style="mix-blend-mode:normal"></path></g></g></g></g></g><g id="lw6xndfb01734756_translate"><g transform="matrix(0.8648755731995987,-0.5018606355532031,0.5019863050901899,0.8648328812447726,63.0001,119.0254)"><g id="lw6xndfb01734756" opacity="1" style="mix-blend-mode:normal"><g><g><path id="lw6xndfb01734756_fill_path" d="M5,0h4c2.76142,0 5,2.23858 5,5v9c0,2.76142 -2.23858,5 -5,5h-4c-2.76142,0 -5,-2.23858 -5,-5v-9c0,-2.76142 2.23858,-5 5,-5z" fill-rule="nonzero" fill="rgb(255, 255, 255)" fill-opacity="1" style="mix-blend-mode:normal"></path><path id="lw6xndfb01734756_fill_path" d="M5,0h4c2.76142,0 5,2.23858 5,5v9c0,2.76142 -2.23858,5 -5,5h-4c-2.76142,0 -5,-2.23858 -5,-5v-9c0,-2.76142 2.23858,-5 5,-5z" fill-rule="nonzero" fill="rgb(255, 255, 255)" fill-opacity="1" style="mix-blend-mode:normal"></path><path id="lw6xndfb01734756_fill_path" d="M5,0h4c2.76142,0 5,2.23858 5,5v9c0,2.76142 -2.23858,5 -5,5h-4c-2.76142,0 -5,-2.23858 -5,-5v-9c0,-2.76142 2.23858,-5 5,-5z" fill-rule="nonzero" fill="rgb(255, 255, 255)" fill-opacity="1" style="mix-blend-mode:normal"></path><path id="lw6xndfb01734756_fill_path" d="M5,0h4c2.76142,0 5,2.23858 5,5v9c0,2.76142 -2.23858,5 -5,5h-4c-2.76142,0 -5,-2.23858 -5,-5v-9c0,-2.76142 2.23858,-5 5,-5z" fill-rule="nonzero" fill="rgb(255, 255, 255)" fill-opacity="1" style="mix-blend-mode:normal"></path></g></g></g></g></g><g id="lw6xndfe48202763_translate"><g transform="matrix(0.9102642935270637,0.41411029482175327,-0.4140276852657689,0.9102267100687831,10.35870429634223,97)"><g id="lw6xndfe48202763" opacity="1" style="mix-blend-mode:normal"><g><g><path id="lw6xndfe48202763_fill_path" d="M5,0h4c2.76142,0 5,2.23858 5,5v15c0,2.76142 -2.23858,5 -5,5h-4c-2.76142,0 -5,-2.23858 -5,-5v-15c0,-2.76142 2.23858,-5 5,-5z" fill-rule="nonzero" fill="rgb(255, 255, 255)" fill-opacity="1" style="mix-blend-mode:normal"></path><path id="lw6xndfe48202763_fill_path" d="M5,0h4c2.76142,0 5,2.23858 5,5v15c0,2.76142 -2.23858,5 -5,5h-4c-2.76142,0 -5,-2.23858 -5,-5v-15c0,-2.76142 2.23858,-5 5,-5z" fill-rule="nonzero" fill="rgb(255, 255, 255)" fill-opacity="1" style="mix-blend-mode:normal"></path><path id="lw6xndfe48202763_fill_path" d="M5,0h4c2.76142,0 5,2.23858 5,5v15c0,2.76142 -2.23858,5 -5,5h-4c-2.76142,0 -5,-2.23858 -5,-5v-15c0,-2.76142 2.23858,-5 5,-5z" fill-rule="nonzero" fill="rgb(255, 255, 255)" fill-opacity="1" style="mix-blend-mode:normal"></path><path id="lw6xndfe48202763_fill_path" d="M5,0h4c2.76142,0 5,2.23858 5,5v15c0,2.76142 -2.23858,5 -5,5h-4c-2.76142,0 -5,-2.23858 -5,-5v-15c0,-2.76142 2.23858,-5 5,-5z" fill-rule="nonzero" fill="rgb(255, 255, 255)" fill-opacity="1" style="mix-blend-mode:normal"></path></g></g></g></g></g><g id="lw6xndfi34304245_translate"><g transform="matrix(0.33321739201219885,0.9428492973237084,-0.9427439635235207,0.3332194510171778,63,0)"><g id="lw6xndfi34304245" opacity="1" style="mix-blend-mode:normal"><g><g><path id="lw6xndfi34304245_fill_path" d="M5.4604,0v0c3.0157,0 5.4604,2.4447 5.4604,5.4604v38.9278c0,3.0157 -2.4447,5.4604 -5.4604,5.4604v0c-3.0157,0 -5.4604,-2.4447 -5.4604,-5.4604v-38.9278c0,-3.0157 2.4447,-5.4604 5.4604,-5.4604z" fill-rule="nonzero" fill="rgb(255, 255, 255)" fill-opacity="1" style="mix-blend-mode:normal"></path><path id="lw6xndfi34304245_fill_path" d="M5.4604,0v0c3.0157,0 5.4604,2.4447 5.4604,5.4604v38.9278c0,3.0157 -2.4447,5.4604 -5.4604,5.4604v0c-3.0157,0 -5.4604,-2.4447 -5.4604,-5.4604v-38.9278c0,-3.0157 2.4447,-5.4604 5.4604,-5.4604z" fill-rule="nonzero" fill="rgb(255, 255, 255)" fill-opacity="1" style="mix-blend-mode:normal"></path><path id="lw6xndfi34304245_fill_path" d="M5.4604,0v0c3.0157,0 5.4604,2.4447 5.4604,5.4604v38.9278c0,3.0157 -2.4447,5.4604 -5.4604,5.4604v0c-3.0157,0 -5.4604,-2.4447 -5.4604,-5.4604v-38.9278c0,-3.0157 2.4447,-5.4604 5.4604,-5.4604z" fill-rule="nonzero" fill="rgb(255, 255, 255)" fill-opacity="1" style="mix-blend-mode:normal"></path><path id="lw6xndfi34304245_fill_path" d="M5.4604,0v0c3.0157,0 5.4604,2.4447 5.4604,5.4604v38.9278c0,3.0157 -2.4447,5.4604 -5.4604,5.4604v0c-3.0157,0 -5.4604,-2.4447 -5.4604,-5.4604v-38.9278c0,-3.0157 2.4447,-5.4604 5.4604,-5.4604z" fill-rule="nonzero" fill="rgb(255, 255, 255)" fill-opacity="1" style="mix-blend-mode:normal"></path></g></g></g></g></g><g id="lw6xndfl83389627_translate"><g transform="matrix(0.9791597683982665,-0.20299579683612728,0.2030915003220358,0.9791796088904556,88.35594258987146,86.80931421122746)"><g id="lw6xndfl83389627" opacity="1" style="mix-blend-mode:normal"><g><g><path id="lw6xndfl83389627_fill_path" d="M5,0h4c2.76142,0 5,2.23858 5,5v15c0,2.76142 -2.23858,5 -5,5h-4c-2.76142,0 -5,-2.23858 -5,-5v-15c0,-2.76142 2.23858,-5 5,-5z" fill-rule="nonzero" fill="rgb(255, 255, 255)" fill-opacity="1" style="mix-blend-mode:normal"></path><path id="lw6xndfl83389627_fill_path" d="M5,0h4c2.76142,0 5,2.23858 5,5v15c0,2.76142 -2.23858,5 -5,5h-4c-2.76142,0 -5,-2.23858 -5,-5v-15c0,-2.76142 2.23858,-5 5,-5z" fill-rule="nonzero" fill="rgb(255, 255, 255)" fill-opacity="1" style="mix-blend-mode:normal"></path><path id="lw6xndfl83389627_fill_path" d="M5,0h4c2.76142,0 5,2.23858 5,5v15c0,2.76142 -2.23858,5 -5,5h-4c-2.76142,0 -5,-2.23858 -5,-5v-15c0,-2.76142 2.23858,-5 5,-5z" fill-rule="nonzero" fill="rgb(255, 255, 255)" fill-opacity="1" style="mix-blend-mode:normal"></path><path id="lw6xndfl83389627_fill_path" d="M5,0h4c2.76142,0 5,2.23858 5,5v15c0,2.76142 -2.23858,5 -5,5h-4c-2.76142,0 -5,-2.23858 -5,-5v-15c0,-2.76142 2.23858,-5 5,-5z" fill-rule="nonzero" fill="rgb(255, 255, 255)" fill-opacity="1" style="mix-blend-mode:normal"></path></g></g></g></g></g><g id="lw6xndfq17937372_translate"><g transform="matrix(1,0,0,1,31.0001,80)"><g id="lw6xndfq17937372" opacity="1" style="mix-blend-mode:normal"><g><g><path id="lw6xndfq17937372_fill_path" d="M0.01,0h14.98c0.00552,0 0.01,0.00448 0.01,0.01v33.98c0,0.00552 -0.00448,0.01 -0.01,0.01h-14.98c-0.00552,0 -0.01,-0.00448 -0.01,-0.01v-33.98c0,-0.00552 0.00448,-0.01 0.01,-0.01z" fill-rule="nonzero" fill="rgb(255, 255, 255)" fill-opacity="1" style="mix-blend-mode:normal"></path></g></g></g></g></g><g id="lw6xndft82365336_translate"><g transform="matrix(1,0,0,1,66.0001,79)"><g id="lw6xndft82365336" opacity="1" style="mix-blend-mode:normal"><g><g><path id="lw6xndft82365336_fill_path" d="M0.01,0h11.98c0.00552,0 0.01,0.00448 0.01,0.01v35.98c0,0.00552 -0.00448,0.01 -0.01,0.01h-11.98c-0.00552,0 -0.01,-0.00448 -0.01,-0.01v-35.98c0,-0.00552 0.00448,-0.01 0.01,-0.01z" fill-rule="nonzero" fill="rgb(255, 255, 255)" fill-opacity="1" style="mix-blend-mode:normal"></path></g></g></g></g></g><g id="lw6xndfw71775473_translate"><g transform="matrix(0.7070561816863322,-0.7070360705084288,0.7071573806867628,0.7070360705084289,41.0001,84.6563)"><g id="lw6xndfw71775473" opacity="1" style="mix-blend-mode:normal"><g><g><path id="lw6xndfw71775473_fill_path" d="M0.01,0h7.98c0.00552,0 0.01,0.00448 0.01,0.01v5.8893c0,0.00552 -0.00448,0.01 -0.01,0.01h-7.98c-0.00552,0 -0.01,-0.00448 -0.01,-0.01v-5.8893c0,-0.00552 0.00448,-0.01 0.01,-0.01z" fill-rule="nonzero" fill="rgb(255, 255, 255)" fill-opacity="1" style="mix-blend-mode:normal"></path></g></g></g></g></g><g id="lw6xndfz42923451_translate"><g transform="matrix(0.7592792602240442,0.6508232475105306,-0.6507649428872313,0.7592292805864687,57.6417,69)"><g id="lw6xndfz42923451" opacity="1" style="mix-blend-mode:normal"><g><g><path id="lw6xndfz42923451_fill_path" d="M0.01,0h26.6407c0.00552,0 0.01,0.00448 0.01,0.01v16.4949c0,0.00552 -0.00448,0.01 -0.01,0.01h-26.6407c-0.00552,0 -0.01,-0.00448 -0.01,-0.01v-16.4949c0,-0.00552 0.00448,-0.01 0.01,-0.01z" fill-rule="nonzero" fill="rgb(255, 255, 255)" fill-opacity="1" style="mix-blend-mode:normal"></path></g></g></g></g></g><g id="lw6xndg227883090_translate"><g transform="matrix(0.6937337624661669,-0.720183105068277,0.7202315403315899,0.6937840407318513,49.0001,113.1504)"><g id="lw6xndg227883090" opacity="1" style="mix-blend-mode:normal"><g><g><path id="lw6xndg227883090_fill_path" d="M0.01,0h25.181c0.00552,0 0.01,0.00448 0.01,0.01v12.3675c0,0.00552 -0.00448,0.01 -0.01,0.01h-25.181c-0.00552,0 -0.01,-0.00448 -0.01,-0.01v-12.3675c0,-0.00552 0.00448,-0.01 0.01,-0.01z" fill-rule="nonzero" fill="rgb(255, 255, 255)" fill-opacity="1" style="mix-blend-mode:normal"></path></g></g></g></g></g><g id="lw6xndg451269320_translate"><g transform="matrix(0.7071384877910488,0.7070549456525135,-0.7069336420090526,0.7071586129209777,44.8287,107)"><g id="lw6xndg451269320" opacity="1" style="mix-blend-mode:normal"><g><g><path id="lw6xndg451269320_fill_path" d="M0.01,0h7.98c0.00552,0 0.01,0.00448 0.01,0.01v12.48c0,0.00552 -0.00448,0.01 -0.01,0.01h-7.98c-0.00552,0 -0.01,-0.00448 -0.01,-0.01v-12.48c0,-0.00552 0.00448,-0.01 0.01,-0.01z" fill-rule="nonzero" fill="rgb(255, 255, 255)" fill-opacity="1" style="mix-blend-mode:normal"></path></g></g></g></g></g><g id="lw6xndg762049807_translate"><g transform="matrix(0.7378364152468585,0.6749529936755497,-0.6748314157684435,0.7378607296288462,45.0089,86)"><g id="lw6xndg762049807" opacity="1" style="mix-blend-mode:normal"><g><g><path id="lw6xndg762049807_fill_path" d="M0.01,0h16.8214c0.00552,0 0.01,0.00448 0.01,0.01v17.7704c0,0.00552 -0.00448,0.01 -0.01,0.01h-16.8214c-0.00552,0 -0.01,-0.00448 -0.01,-0.01v-17.7704c0,-0.00552 0.00448,-0.01 0.01,-0.01z" fill-rule="nonzero" fill="rgb(255, 255, 255)" fill-opacity="1" style="mix-blend-mode:normal"></path></g></g></g></g></g><g id="lwadpwj351045765_translate"><g transform="matrix(1,0,0,1,21.64,46.24)"><g id="lwadpwj351045765" opacity="1" style="mix-blend-mode:normal"><g><g><g id="lw6xndga09626622_translate"><g transform="matrix(0.9277206902630807,0.37313028359437656,-0.3730071573211232,0.9277789561446089,2.17,3.18)"><g id="lw6xndga09626622" opacity="1" style="mix-blend-mode:normal"><g><g><path id="lw6xndga09626622_fill_path" d="M0.01,0h17.7116c0.00552,0 0.01,0.00448 0.01,0.01v5.8064c0,0.00552 -0.00448,0.01 -0.01,0.01h-17.7116c-0.00552,0 -0.01,-0.00448 -0.01,-0.01v-5.8064c0,-0.00552 0.00448,-0.01 0.01,-0.01z" fill-rule="nonzero" fill="rgb(255, 255, 255)" fill-opacity="1" style="mix-blend-mode:normal"></path><path id="lw6xndga09626622_fill_path" d="M0.01,0h17.7116c0.00552,0 0.01,0.00448 0.01,0.01v5.8064c0,0.00552 -0.00448,0.01 -0.01,0.01h-17.7116c-0.00552,0 -0.01,-0.00448 -0.01,-0.01v-5.8064c0,-0.00552 0.00448,-0.01 0.01,-0.01z" fill-rule="nonzero" fill="rgb(255, 255, 255)" fill-opacity="1" style="mix-blend-mode:normal"></path><path id="lw6xndga09626622_fill_path" d="M0.01,0h17.7116c0.00552,0 0.01,0.00448 0.01,0.01v5.8064c0,0.00552 -0.00448,0.01 -0.01,0.01h-17.7116c-0.00552,0 -0.01,-0.00448 -0.01,-0.01v-5.8064c0,-0.00552 0.00448,-0.01 0.01,-0.01z" fill-rule="nonzero" fill="rgb(255, 255, 255)" fill-opacity="1" style="mix-blend-mode:normal"></path></g></g></g></g></g><g id="lw6xndgc86093118_translate"><g transform="matrix(0.4689583196355593,-0.8831098781351142,0.883220299056387,0.46895303937620847,2.5819,15.6606)"><g id="lw6xndgc86093118" opacity="1" style="mix-blend-mode:normal"><g><g><path id="lw6xndgc86093118_fill_path" d="M0.01,0h17.7116c0.00552,0 0.01,0.00448 0.01,0.01v5.8064c0,0.00552 -0.00448,0.01 -0.01,0.01h-17.7116c-0.00552,0 -0.01,-0.00448 -0.01,-0.01v-5.8064c0,-0.00552 0.00448,-0.01 0.01,-0.01z" fill-rule="nonzero" fill="rgb(255, 255, 255)" fill-opacity="1" style="mix-blend-mode:normal"></path><path id="lw6xndgc86093118_fill_path" d="M0.01,0h17.7116c0.00552,0 0.01,0.00448 0.01,0.01v5.8064c0,0.00552 -0.00448,0.01 -0.01,0.01h-17.7116c-0.00552,0 -0.01,-0.00448 -0.01,-0.01v-5.8064c0,-0.00552 0.00448,-0.01 0.01,-0.01z" fill-rule="nonzero" fill="rgb(255, 255, 255)" fill-opacity="1" style="mix-blend-mode:normal"></path><path id="lw6xndgc86093118_fill_path" d="M0.01,0h17.7116c0.00552,0 0.01,0.00448 0.01,0.01v5.8064c0,0.00552 -0.00448,0.01 -0.01,0.01h-17.7116c-0.00552,0 -0.01,-0.00448 -0.01,-0.01v-5.8064c0,-0.00552 0.00448,-0.01 0.01,-0.01z" fill-rule="nonzero" fill="rgb(255, 255, 255)" fill-opacity="1" style="mix-blend-mode:normal"></path></g></g></g></g></g></g></g></g></g></g><g id="lwadpwjc47670219_translate"><g transform="matrix(1,0,0,1,50.9998,38.0008)"><g id="lwadpwjc47670219" opacity="1" style="mix-blend-mode:normal"><g><g><g id="lw6xndgf72917684_translate"><g transform="matrix(0.8171114699788632,0.5764308899820211,-0.5763062227294048,0.8171459043980671,3.36,1.09)"><g id="lw6xndgf72917684" opacity="1" style="mix-blend-mode:normal"><g><g><path id="lw6xndgf72917684_fill_path" d="M0.01,0h17.7116c0.00552,0 0.01,0.00448 0.01,0.01v5.8064c0,0.00552 -0.00448,0.01 -0.01,0.01h-17.7116c-0.00552,0 -0.01,-0.00448 -0.01,-0.01v-5.8064c0,-0.00552 0.00448,-0.01 0.01,-0.01z" fill-rule="nonzero" fill="rgb(255, 255, 255)" fill-opacity="1" style="mix-blend-mode:normal"></path><path id="lw6xndgf72917684_fill_path" d="M0.01,0h17.7116c0.00552,0 0.01,0.00448 0.01,0.01v5.8064c0,0.00552 -0.00448,0.01 -0.01,0.01h-17.7116c-0.00552,0 -0.01,-0.00448 -0.01,-0.01v-5.8064c0,-0.00552 0.00448,-0.01 0.01,-0.01z" fill-rule="nonzero" fill="rgb(255, 255, 255)" fill-opacity="1" style="mix-blend-mode:normal"></path><path id="lw6xndgf72917684_fill_path" d="M0.01,0h17.7116c0.00552,0 0.01,0.00448 0.01,0.01v5.8064c0,0.00552 -0.00448,0.01 -0.01,0.01h-17.7116c-0.00552,0 -0.01,-0.00448 -0.01,-0.01v-5.8064c0,-0.00552 0.00448,-0.01 0.01,-0.01z" fill-rule="nonzero" fill="rgb(255, 255, 255)" fill-opacity="1" style="mix-blend-mode:normal"></path></g></g></g></g></g><g id="lw6xndgi66851012_translate"><g transform="matrix(0.6594520988099603,-0.7516276786900008,0.7517465888009163,0.659436003435573,0.89,13.33)"><g id="lw6xndgi66851012" opacity="1" style="mix-blend-mode:normal"><g><g><path id="lw6xndgi66851012_fill_path" d="M0.01,0h17.7116c0.00552,0 0.01,0.00448 0.01,0.01v5.8064c0,0.00552 -0.00448,0.01 -0.01,0.01h-17.7116c-0.00552,0 -0.01,-0.00448 -0.01,-0.01v-5.8064c0,-0.00552 0.00448,-0.01 0.01,-0.01z" fill-rule="nonzero" fill="rgb(255, 255, 255)" fill-opacity="1" style="mix-blend-mode:normal"></path><path id="lw6xndgi66851012_fill_path" d="M0.01,0h17.7116c0.00552,0 0.01,0.00448 0.01,0.01v5.8064c0,0.00552 -0.00448,0.01 -0.01,0.01h-17.7116c-0.00552,0 -0.01,-0.00448 -0.01,-0.01v-5.8064c0,-0.00552 0.00448,-0.01 0.01,-0.01z" fill-rule="nonzero" fill="rgb(255, 255, 255)" fill-opacity="1" style="mix-blend-mode:normal"></path><path id="lw6xndgi66851012_fill_path" d="M0.01,0h17.7116c0.00552,0 0.01,0.00448 0.01,0.01v5.8064c0,0.00552 -0.00448,0.01 -0.01,0.01h-17.7116c-0.00552,0 -0.01,-0.00448 -0.01,-0.01v-5.8064c0,-0.00552 0.00448,-0.01 0.01,-0.01z" fill-rule="nonzero" fill="rgb(255, 255, 255)" fill-opacity="1" style="mix-blend-mode:normal"></path></g></g></g></g></g></g></g></g></g></g><g id="lw6xndh671602756_translate"><g transform="matrix(0.9183289829852631,-0.35536467035202757,0.16854822156203295,1.0009919035964252,27.351427261904032,21.5762)"><g id="lw6xndh671602756" opacity="1" style="mix-blend-mode:normal"><g><g><path id="lw6xndh671602756_fill_path" d="M 3.478650000000001 0 C 3.478650000000001 0, 2.6976500000000003 2.3289, 2.6976500000000003 2.3289 C 2.6976500000000003 2.3289, 0.17015000000000047 2.3289, 0.17015000000000047 2.3289 C 0.17015000000000047 2.3289, 2.2148500000000007 3.7681, 2.2148500000000007 3.7681 C 2.2148500000000007 3.7681, 1.4338500000000005 6.0971, 1.4338500000000005 6.0971 C 1.4338500000000005 6.0971, 3.4786500000000005 4.6579, 3.4786500000000005 4.6579 C 3.4786500000000005 4.6579, 5.52345 6.0971, 5.52345 6.0971 C 5.52345 6.0971, 4.74245 3.7681, 4.74245 3.7681 C 4.74245 3.7681, 6.7871500000000005 2.3289, 6.7871500000000005 2.3289 C 6.7871500000000005 2.3289, 4.259650000000001 2.3289, 4.259650000000001 2.3289 C 4.259650000000001 2.3289, 3.478650000000001 0, 3.478650000000001 0 Z" fill-rule="nonzero" fill="rgb(255, 255, 255)" fill-opacity="1" style="mix-blend-mode:normal"></path></g></g></g></g></g></g></g></g></g></g></g></g></g></g></g><animateTransform href="#lw6xndev01260434_translate" attributeName="transform" type="translate" values="0 0;0 0" dur="3.5s" repeatCount="indefinite" calcMode="spline" keyTimes="0;1" keySplines="0.5 0.35 0.15 1" additive="sum" fill="freeze"></animateTransform><animateTransform href="#lw6xndev01260434" attributeName="transform" type="translate" values="0 0;0 0" dur="3.5s" repeatCount="indefinite" calcMode="spline" keyTimes="0;1" keySplines="0.5 0.35 0.15 1" additive="sum" fill="freeze"></animateTransform><animateTransform href="#lw6xndev01260434" attributeName="transform" type="scale" values="1 1;1 1" dur="3.5s" repeatCount="indefinite" calcMode="spline" keyTimes="0;1" keySplines="0.5 0.35 0.15 1" additive="sum" fill="freeze"></animateTransform><animateTransform href="#lw6xndev01260434" attributeName="transform" type="translate" values="0 0;0 0" dur="3.5s" repeatCount="indefinite" calcMode="spline" keyTimes="0;1" keySplines="0.5 0.35 0.15 1" additive="sum" fill="freeze"></animateTransform><animateTransform href="#lw6xndev01260434" attributeName="transform" type="translate" values="0 0;0 0" dur="3.5s" repeatCount="indefinite" calcMode="spline" keyTimes="0;1" keySplines="0.5 0.35 0.15 1" additive="sum" fill="freeze"></animateTransform><animateTransform xlink:href="#lw6xndev01260434" href="#lw6xndev01260434" attributeName="transform" type="skewX" values="0;0" dur="3.5s" repeatCount="indefinite" calcMode="spline" keyTimes="0;1" keySplines="0.5 0.35 0.15 1" additive="sum" fill="freeze"></animateTransform><animateTransform xlink:href="#lw6xndev01260434" href="#lw6xndev01260434" attributeName="transform" type="skewY" values="0;0" dur="3.5s" repeatCount="indefinite" calcMode="spline" keyTimes="0;1" keySplines="0.5 0.35 0.15 1" additive="sum" fill="freeze"></animateTransform><animateTransform xlink:href="#lw6xndev01260434" href="#lw6xndev01260434" attributeName="transform" type="translate" values="0 0;0 0" dur="3.5s" repeatCount="indefinite" calcMode="spline" keyTimes="0;1" keySplines="0.5 0.35 0.15 1" additive="sum" fill="freeze"></animateTransform><animateTransform href="#lw6xndf731689662" attributeName="transform" type="rotate" values="0 0 0;0 0 0;-30.000000000000004 0 0;0 0 0;0 0 0" dur="3.5s" repeatCount="indefinite" calcMode="spline" keyTimes="0;0.01;0.29;0.72;1" keySplines="0.5 0.35 0.15 1;0.5 0.35 0.15 1;0.5 0.35 0.15 1;0.5 0.35 0.15 1" additive="sum" fill="freeze"></animateTransform><animateTransform href="#lw6xndfe48202763_translate" attributeName="transform" type="translate" values="0 0;0 0;3.0000000000000018 4.249909159518879;0 0;0 0" dur="3.5s" repeatCount="indefinite" calcMode="spline" keyTimes="0;0.13;0.69;0.97;1" keySplines="0 0 1 1;0 0 0.15 1;0.5 0.35 1 1;0 0 1 1" additive="sum" fill="freeze"></animateTransform><animateTransform href="#lw6xndfe48202763" attributeName="transform" type="rotate" values="0 7 12.5;0 7 12.5;-17 7 12.5;-0.46330000000000027 7 12.5;-0.46330000000000027 7 12.5" dur="3.5s" repeatCount="indefinite" calcMode="spline" keyTimes="0;0.13;0.69;0.97;1" keySplines="0.5 0.35 0.15 1;0.5 0.35 0.15 1;0.5 0.35 0.15 1;0.5 0.35 0.15 1" additive="sum" fill="freeze"></animateTransform><animateTransform href="#lw6xndfi34304245_translate" attributeName="transform" type="translate" values="0 0;0 0" dur="3.5s" repeatCount="indefinite" calcMode="spline" keyTimes="0;1" keySplines="0.5 0.35 0.15 1" additive="sum" fill="freeze"></animateTransform><animateTransform href="#lw6xndfi34304245" attributeName="transform" type="rotate" values="0 0 0;0 0 0" dur="3.5s" repeatCount="indefinite" calcMode="spline" keyTimes="0;1" keySplines="0.5 0.35 0.15 1" additive="sum" fill="freeze"></animateTransform><animateTransform href="#lw6xndfl83389627_translate" attributeName="transform" type="translate" values="0 0;0 0;1 0.830714211227459;0 -3.25;0 0;-0.9969999999999999 0.0014000000000038426" dur="3.5s" repeatCount="indefinite" calcMode="spline" keyTimes="0;0;0;0.38;0.69;1" keySplines="0 0 1 1;0 0 0.15 1;0.5 0.35 0.35 1;0.65 0 1 1;0 0 0.15 1" additive="sum" fill="freeze"></animateTransform><animateTransform href="#lwadpwj351045765_translate" attributeName="transform" type="translate" values="0 0;-0.0016999999999995907 -0.00019999999999953388;-3 -5;0 -2;-3 -5;0 0;0 0" dur="3.5s" repeatCount="indefinite" calcMode="spline" keyTimes="0;0.01;0.27;0.43;0.57;0.71;1" keySplines="0.5 0.35 0.15 1;0.5 0.35 0.15 1;0.5 0.35 0.15 1;0.5 0.35 0.15 1;0.5 0.35 0.15 1;0.5 0.35 0.15 1" additive="sum" fill="freeze"></animateTransform><animateTransform href="#lwadpwj351045765" attributeName="transform" type="translate" values="0 0;0 0;0 0;0 0;0 0;0 0" dur="3.5s" repeatCount="indefinite" calcMode="spline" keyTimes="0;0.27;0.43;0.57;0.71;1" keySplines="0.5 0.35 0.15 1;0.5 0.35 0.15 1;0.5 0.35 0.15 1;0.5 0.35 0.15 1;0.5 0.35 0.15 1" additive="sum" fill="freeze"></animateTransform><animateTransform href="#lwadpwj351045765" attributeName="transform" type="scale" values="1 1;1.3600000000000003 1.3600000000000003;1 1;1.36 1.36;1 1;1 1" dur="3.5s" repeatCount="indefinite" calcMode="spline" keyTimes="0;0.27;0.43;0.57;0.71;1" keySplines="0.5 0.35 0.15 1;0.5 0.35 0.15 1;0.5 0.35 0.15 1;0.5 0.35 0.15 1;0.5 0.35 0.15 1" additive="sum" fill="freeze"></animateTransform><animateTransform href="#lwadpwj351045765" attributeName="transform" type="translate" values="0 0;0 0;0 0;0 0;0 0;0 0" dur="3.5s" repeatCount="indefinite" calcMode="spline" keyTimes="0;0.27;0.43;0.57;0.71;1" keySplines="0.5 0.35 0.15 1;0.5 0.35 0.15 1;0.5 0.35 0.15 1;0.5 0.35 0.15 1;0.5 0.35 0.15 1" additive="sum" fill="freeze"></animateTransform><animate href="#lw6xndga09626622_fill_path" attributeName="d" values="M0.01,0h17.7116c0.00552,0 0.01,0.00448 0.01,0.01v5.8064c0,0.00552 -0.00448,0.01 -0.01,0.01h-17.7116c-0.00552,0 -0.01,-0.00448 -0.01,-0.01v-5.8064c0,-0.00552 0.00448,-0.01 0.01,-0.01z;M0.01,0h17.7116c0.00552,0 0.01,0.00448 0.01,0.01v5.8064c0,0.00552 -0.00448,0.01 -0.01,0.01h-17.7116c-0.00552,0 -0.01,-0.00448 -0.01,-0.01v-5.8064c0,-0.00552 0.00448,-0.01 0.01,-0.01z" dur="3.5s" repeatCount="indefinite" keyTimes="0;1" fill="freeze"></animate><animate href="#lw6xndga09626622_fill_path" attributeName="d" values="M0.01,0h17.7116c0.00552,0 0.01,0.00448 0.01,0.01v5.8064c0,0.00552 -0.00448,0.01 -0.01,0.01h-17.7116c-0.00552,0 -0.01,-0.00448 -0.01,-0.01v-5.8064c0,-0.00552 0.00448,-0.01 0.01,-0.01z;M0.01,0h17.7116c0.00552,0 0.01,0.00448 0.01,0.01v5.8064c0,0.00552 -0.00448,0.01 -0.01,0.01h-17.7116c-0.00552,0 -0.01,-0.00448 -0.01,-0.01v-5.8064c0,-0.00552 0.00448,-0.01 0.01,-0.01z" dur="3.5s" repeatCount="indefinite" keyTimes="0;1" fill="freeze"></animate><animate href="#lw6xndga09626622_fill_path" attributeName="d" values="M0.01,0h17.7116c0.00552,0 0.01,0.00448 0.01,0.01v5.8064c0,0.00552 -0.00448,0.01 -0.01,0.01h-17.7116c-0.00552,0 -0.01,-0.00448 -0.01,-0.01v-5.8064c0,-0.00552 0.00448,-0.01 0.01,-0.01z;M0.01,0h17.7116c0.00552,0 0.01,0.00448 0.01,0.01v5.8064c0,0.00552 -0.00448,0.01 -0.01,0.01h-17.7116c-0.00552,0 -0.01,-0.00448 -0.01,-0.01v-5.8064c0,-0.00552 0.00448,-0.01 0.01,-0.01z" dur="3.5s" repeatCount="indefinite" keyTimes="0;1" fill="freeze"></animate><animateTransform href="#lw6xndga09626622_translate" attributeName="transform" type="translate" values="0 0;0 0;0 0" dur="3.5s" repeatCount="indefinite" calcMode="spline" keyTimes="0;0.01;1" keySplines="0.5 0.35 0.15 1;0.5 0.35 0.15 1" additive="sum" fill="freeze"></animateTransform><animate href="#lw6xndgc86093118_fill_path" attributeName="d" values="M0.01,0h17.7116c0.00552,0 0.01,0.00448 0.01,0.01v5.8064c0,0.00552 -0.00448,0.01 -0.01,0.01h-17.7116c-0.00552,0 -0.01,-0.00448 -0.01,-0.01v-5.8064c0,-0.00552 0.00448,-0.01 0.01,-0.01z;M0.01,0h17.7116c0.00552,0 0.01,0.00448 0.01,0.01v5.8064c0,0.00552 -0.00448,0.01 -0.01,0.01h-17.7116c-0.00552,0 -0.01,-0.00448 -0.01,-0.01v-5.8064c0,-0.00552 0.00448,-0.01 0.01,-0.01z" dur="3.5s" repeatCount="indefinite" keyTimes="0;1" fill="freeze"></animate><animate href="#lw6xndgc86093118_fill_path" attributeName="d" values="M0.01,0h17.7116c0.00552,0 0.01,0.00448 0.01,0.01v5.8064c0,0.00552 -0.00448,0.01 -0.01,0.01h-17.7116c-0.00552,0 -0.01,-0.00448 -0.01,-0.01v-5.8064c0,-0.00552 0.00448,-0.01 0.01,-0.01z;M0.01,0h17.7116c0.00552,0 0.01,0.00448 0.01,0.01v5.8064c0,0.00552 -0.00448,0.01 -0.01,0.01h-17.7116c-0.00552,0 -0.01,-0.00448 -0.01,-0.01v-5.8064c0,-0.00552 0.00448,-0.01 0.01,-0.01z" dur="3.5s" repeatCount="indefinite" keyTimes="0;1" fill="freeze"></animate><animate href="#lw6xndgc86093118_fill_path" attributeName="d" values="M0.01,0h17.7116c0.00552,0 0.01,0.00448 0.01,0.01v5.8064c0,0.00552 -0.00448,0.01 -0.01,0.01h-17.7116c-0.00552,0 -0.01,-0.00448 -0.01,-0.01v-5.8064c0,-0.00552 0.00448,-0.01 0.01,-0.01z;M0.01,0h17.7116c0.00552,0 0.01,0.00448 0.01,0.01v5.8064c0,0.00552 -0.00448,0.01 -0.01,0.01h-17.7116c-0.00552,0 -0.01,-0.00448 -0.01,-0.01v-5.8064c0,-0.00552 0.00448,-0.01 0.01,-0.01z" dur="3.5s" repeatCount="indefinite" keyTimes="0;1" fill="freeze"></animate><animateTransform href="#lwadpwjc47670219_translate" attributeName="transform" type="translate" values="0 0;-1.9998000000000005 -3.000799999999998;0.00019999999999953388 -0.0007999999999981355;-1.9998000000000005 -3.000799999999998;0.00019999999999953388 -0.0007999999999981355;0.00019999999999953388 -0.0007999999999981355" dur="3.5s" repeatCount="indefinite" calcMode="spline" keyTimes="0;0.18;0.43;0.57;0.71;1" keySplines="0.5 0.35 0.15 1;0.5 0.35 0.15 1;0.5 0.35 0.15 1;0.5 0.35 0.15 1;0.5 0.35 0.15 1" additive="sum" fill="freeze"></animateTransform><animateTransform href="#lwadpwjc47670219" attributeName="transform" type="translate" values="0 0;0 0;0 0;0 0;0 0;0 0" dur="3.5s" repeatCount="indefinite" calcMode="spline" keyTimes="0;0.18;0.43;0.57;0.71;1" keySplines="0.5 0.35 0.15 1;0.5 0.35 0.15 1;0.5 0.35 0.15 1;0.5 0.35 0.15 1;0.5 0.35 0.15 1" additive="sum" fill="freeze"></animateTransform><animateTransform href="#lwadpwjc47670219" attributeName="transform" type="scale" values="1 1;1.36 1.36;1 1;1.36 1.36;1 1;1 1" dur="3.5s" repeatCount="indefinite" calcMode="spline" keyTimes="0;0.18;0.43;0.57;0.71;1" keySplines="0.5 0.35 0.15 1;0.5 0.35 0.15 1;0.5 0.35 0.15 1;0.5 0.35 0.15 1;0.5 0.35 0.15 1" additive="sum" fill="freeze"></animateTransform><animateTransform href="#lwadpwjc47670219" attributeName="transform" type="translate" values="0 0;0 0;0 0;0 0;0 0;0 0" dur="3.5s" repeatCount="indefinite" calcMode="spline" keyTimes="0;0.18;0.43;0.57;0.71;1" keySplines="0.5 0.35 0.15 1;0.5 0.35 0.15 1;0.5 0.35 0.15 1;0.5 0.35 0.15 1;0.5 0.35 0.15 1" additive="sum" fill="freeze"></animateTransform><animate href="#lw6xndgf72917684_fill_path" attributeName="d" values="M0.01,0h17.7116c0.00552,0 0.01,0.00448 0.01,0.01v5.8064c0,0.00552 -0.00448,0.01 -0.01,0.01h-17.7116c-0.00552,0 -0.01,-0.00448 -0.01,-0.01v-5.8064c0,-0.00552 0.00448,-0.01 0.01,-0.01z;M0.01,0h17.7116c0.00552,0 0.01,0.00448 0.01,0.01v5.8064c0,0.00552 -0.00448,0.01 -0.01,0.01h-17.7116c-0.00552,0 -0.01,-0.00448 -0.01,-0.01v-5.8064c0,-0.00552 0.00448,-0.01 0.01,-0.01z" dur="3.5s" repeatCount="indefinite" keyTimes="0;1" fill="freeze"></animate><animate href="#lw6xndgf72917684_fill_path" attributeName="d" values="M0.01,0h17.7116c0.00552,0 0.01,0.00448 0.01,0.01v5.8064c0,0.00552 -0.00448,0.01 -0.01,0.01h-17.7116c-0.00552,0 -0.01,-0.00448 -0.01,-0.01v-5.8064c0,-0.00552 0.00448,-0.01 0.01,-0.01z;M0.01,0h17.7116c0.00552,0 0.01,0.00448 0.01,0.01v5.8064c0,0.00552 -0.00448,0.01 -0.01,0.01h-17.7116c-0.00552,0 -0.01,-0.00448 -0.01,-0.01v-5.8064c0,-0.00552 0.00448,-0.01 0.01,-0.01z" dur="3.5s" repeatCount="indefinite" keyTimes="0;1" fill="freeze"></animate><animate href="#lw6xndgf72917684_fill_path" attributeName="d" values="M0.01,0h17.7116c0.00552,0 0.01,0.00448 0.01,0.01v5.8064c0,0.00552 -0.00448,0.01 -0.01,0.01h-17.7116c-0.00552,0 -0.01,-0.00448 -0.01,-0.01v-5.8064c0,-0.00552 0.00448,-0.01 0.01,-0.01z;M0.01,0h17.7116c0.00552,0 0.01,0.00448 0.01,0.01v5.8064c0,0.00552 -0.00448,0.01 -0.01,0.01h-17.7116c-0.00552,0 -0.01,-0.00448 -0.01,-0.01v-5.8064c0,-0.00552 0.00448,-0.01 0.01,-0.01z" dur="3.5s" repeatCount="indefinite" keyTimes="0;1" fill="freeze"></animate><animateTransform href="#lw6xndgf72917684_translate" attributeName="transform" type="translate" values="0 0;0 0;0.0009999999999998899 0;0.0009999999999998899 0" dur="3.5s" repeatCount="indefinite" calcMode="spline" keyTimes="0;0.01;0.71;1" keySplines="0.5 0.35 0.15 1;0.5 0.35 0.15 1;0.5 0.35 0.15 1" additive="sum" fill="freeze"></animateTransform><animate href="#lw6xndgi66851012_fill_path" attributeName="d" values="M0.01,0h17.7116c0.00552,0 0.01,0.00448 0.01,0.01v5.8064c0,0.00552 -0.00448,0.01 -0.01,0.01h-17.7116c-0.00552,0 -0.01,-0.00448 -0.01,-0.01v-5.8064c0,-0.00552 0.00448,-0.01 0.01,-0.01z;M0.01,0h17.7116c0.00552,0 0.01,0.00448 0.01,0.01v5.8064c0,0.00552 -0.00448,0.01 -0.01,0.01h-17.7116c-0.00552,0 -0.01,-0.00448 -0.01,-0.01v-5.8064c0,-0.00552 0.00448,-0.01 0.01,-0.01z" dur="3.5s" repeatCount="indefinite" keyTimes="0;1" fill="freeze"></animate><animate href="#lw6xndgi66851012_fill_path" attributeName="d" values="M0.01,0h17.7116c0.00552,0 0.01,0.00448 0.01,0.01v5.8064c0,0.00552 -0.00448,0.01 -0.01,0.01h-17.7116c-0.00552,0 -0.01,-0.00448 -0.01,-0.01v-5.8064c0,-0.00552 0.00448,-0.01 0.01,-0.01z;M0.01,0h17.7116c0.00552,0 0.01,0.00448 0.01,0.01v5.8064c0,0.00552 -0.00448,0.01 -0.01,0.01h-17.7116c-0.00552,0 -0.01,-0.00448 -0.01,-0.01v-5.8064c0,-0.00552 0.00448,-0.01 0.01,-0.01z" dur="3.5s" repeatCount="indefinite" keyTimes="0;1" fill="freeze"></animate><animate href="#lw6xndgi66851012_fill_path" attributeName="d" values="M0.01,0h17.7116c0.00552,0 0.01,0.00448 0.01,0.01v5.8064c0,0.00552 -0.00448,0.01 -0.01,0.01h-17.7116c-0.00552,0 -0.01,-0.00448 -0.01,-0.01v-5.8064c0,-0.00552 0.00448,-0.01 0.01,-0.01z;M0.01,0h17.7116c0.00552,0 0.01,0.00448 0.01,0.01v5.8064c0,0.00552 -0.00448,0.01 -0.01,0.01h-17.7116c-0.00552,0 -0.01,-0.00448 -0.01,-0.01v-5.8064c0,-0.00552 0.00448,-0.01 0.01,-0.01z" dur="3.5s" repeatCount="indefinite" keyTimes="0;1" fill="freeze"></animate><animateTransform href="#lw6xndgi66851012_translate" attributeName="transform" type="translate" values="0 0;0 0;0.0030999999999999917 0;0.0030999999999999917 0" dur="3.5s" repeatCount="indefinite" calcMode="spline" keyTimes="0;0.01;0.71;1" keySplines="0.5 0.35 0.15 1;0.5 0.35 0.15 1;0.5 0.35 0.15 1" additive="sum" fill="freeze"></animateTransform></svg>