<svg width="30" height="30" viewBox="0 0 30 30" fill="none" xmlns="http://www.w3.org/2000/svg">
<g>
<path fill-rule="evenodd" clip-rule="evenodd" d="M0 15.0754C0 22.5377 5.4 28.7186 12.525 30L12.6141 29.9267C12.6094 29.9258 12.6048 29.925 12.6001 29.9241V19.296H8.85006V15.0749H12.6001V11.7583C12.6001 7.98946 15.0001 5.87891 18.4501 5.87891C19.5001 5.87891 20.7001 6.02966 21.7501 6.18041V10.0246H19.8001C18.0001 10.0246 17.5501 10.9292 17.5501 12.1352V15.0749H21.5251L20.8501 19.296H17.5501V29.9241C17.5042 29.9325 17.4583 29.9407 17.4125 29.9486L17.475 30C24.6 28.7186 30 22.5377 30 15.0754C30 6.78392 23.25 0 15 0C6.75 0 0 6.78392 0 15.0754Z" fill="black"/>
</g>

</svg>
