<svg width="25" height="25" viewBox="0 0 25 25" fill="none" xmlns="http://www.w3.org/2000/svg">
<path d="M20.9208 15.754L23.7852 12.8896C24.2148 12.46 24.2148 11.7659 23.7852 11.3362L20.9208 8.46088V4.39569C20.9208 3.78977 20.4251 3.29402 19.8192 3.29402H15.754L12.8896 0.429662C12.46 8.51668e-06 11.7659 8.51668e-06 11.3362 0.429662L8.46088 3.29402H4.39569C3.78977 3.29402 3.29402 3.78977 3.29402 4.39569V8.46088L0.429662 11.3252C8.51668e-06 11.7549 8.51668e-06 12.4489 0.429662 12.8786L3.29402 15.743V19.8192C3.29402 20.4251 3.78977 20.9208 4.39569 20.9208H8.46088L11.3252 23.7852C11.7549 24.2148 12.4489 24.2148 12.8786 23.7852L15.743 20.9208H19.8192C20.4251 20.9208 20.9208 20.4251 20.9208 19.8192V15.754ZM12.1074 17.5056V6.70921C12.1074 6.03719 12.7133 5.48635 13.3743 5.61855C16.415 6.21346 18.7175 8.89053 18.7175 12.1074C18.7175 15.3243 16.415 18.0014 13.3743 18.5963C12.7133 18.7285 12.1074 18.1777 12.1074 17.5056Z" fill="white"/>
</svg>
