<svg width="25" height="25" viewBox="0 0 25 25" fill="none" xmlns="http://www.w3.org/2000/svg">
<path d="M20.9208 15.7559L23.7852 12.8916C24.2148 12.4619 24.2148 11.7679 23.7852 11.3382L20.9208 8.46283V4.39765C20.9208 3.79173 20.4251 3.29597 19.8192 3.29597H15.754L12.8896 0.431615C12.46 0.00196164 11.7659 0.00196164 11.3362 0.431615L8.46088 3.29597H4.39569C3.78977 3.29597 3.29402 3.79173 3.29402 4.39765V8.46283L0.429662 11.3272C8.51668e-06 11.7568 8.51668e-06 12.4509 0.429662 12.8805L3.29402 15.7449V19.8211C3.29402 20.427 3.78977 20.9228 4.39569 20.9228H8.46088L11.3252 23.7871C11.7549 24.2168 12.4489 24.2168 12.8786 23.7871L15.743 20.9228H19.8192C20.4251 20.9228 20.9208 20.427 20.9208 19.8211V15.7559ZM12.1074 17.5076V6.71117C12.1074 6.03914 12.7133 5.48831 13.3743 5.62051C16.415 6.21541 18.7175 8.89248 18.7175 12.1094C18.7175 15.3263 16.415 18.0033 13.3743 18.5982C12.7133 18.7304 12.1074 18.1796 12.1074 17.5076Z" fill="black"/>
</svg>
