<svg width="19" height="19" viewBox="0 0 19 19" fill="none" xmlns="http://www.w3.org/2000/svg">
<g clip-path="url(#clip0_492_1010)">
<path d="M15.8335 12.1206L17.8918 10.0623C18.2006 9.75352 18.2006 9.25477 17.8918 8.94602L15.8335 6.87977V3.95852C15.8335 3.5231 15.4773 3.16685 15.0418 3.16685H12.1206L10.0623 1.10852C9.75352 0.799766 9.25477 0.799766 8.94602 1.10852L6.87977 3.16685H3.95852C3.5231 3.16685 3.16685 3.5231 3.16685 3.95852V6.87977L1.10852 8.9381C0.799766 9.24685 0.799766 9.7456 1.10852 10.0543L3.16685 12.1127V15.0418C3.16685 15.4773 3.5231 15.8335 3.95852 15.8335H6.87977L8.9381 17.8918C9.24685 18.2006 9.7456 18.2006 10.0543 17.8918L12.1127 15.8335H15.0418C15.4773 15.8335 15.8335 15.4773 15.8335 15.0418V12.1206ZM9.50018 13.3793V5.62102C9.50018 5.1381 9.9356 4.74227 10.4106 4.83727C12.5956 5.26477 14.2502 7.18852 14.2502 9.50018C14.2502 11.8118 12.5956 13.7356 10.4106 14.1631C9.9356 14.2581 9.50018 13.8623 9.50018 13.3793Z" fill="white"/>
</g>
<defs>
<clipPath id="clip0_492_1010">
<rect width="19" height="19" fill="none"/>
</clipPath>
</defs>
</svg>